<svg width="72" height="72" viewBox="0 0 72 72" fill="none" xmlns="http://www.w3.org/2000/svg">
<rect width="72" height="72" rx="12" fill="#0F172A"/>
<ellipse cx="38.0" cy="22.6" rx="2.2" ry="2.2" fill="#FFFFFF"/>
<ellipse cx="33.6" cy="49.4" rx="2.2" ry="2.2" fill="#FFFFFF"/>
<ellipse cx="33.2" cy="22.6" rx="2.2" ry="2.2" fill="#FFFFFF"/>
<circle cx="38.0" cy="49.4" r="2.2" fill="#38BDF8"/>
<ellipse cx="29.5" cy="26.3" rx="2.2" ry="2.2" fill="#FFFFFF"/>
<ellipse cx="42.5" cy="46.9" rx="2.2" ry="2.2" fill="#FFFFFF"/>
<ellipse opacity="0.85" cx="24.2" cy="44.9" rx="2.2" ry="2.2" fill="#FFFFFF"/>
<ellipse cx="40.9" cy="27.9" rx="2.2" ry="2.2" fill="#38BDF8"/>
<ellipse opacity="0.85" cx="25.9" cy="29.9" rx="2.2" ry="2.2" fill="#FFFFFF"/>
<ellipse opacity="0.85" cx="46.1" cy="43.3" rx="2.2" ry="2.2" fill="#FFFFFF"/>
<ellipse cx="28.3" cy="48.2" rx="2.2" ry="2.2" fill="#FFFFFF"/>
<ellipse opacity="0.85" cx="44.5" cy="31.5" rx="2.2" ry="2.2" fill="#FFFFFF"/>
<ellipse opacity="0.6" cx="22.6" cy="39.2" rx="2.2" ry="2.2" fill="#FFFFFF"/>
<ellipse opacity="0.6" cx="49.4" cy="34.0" rx="2.2" ry="2.2" fill="#FFFFFF"/>
<ellipse opacity="0.6" cx="22.6" cy="34.0" rx="2.2" ry="2.2" fill="#FFFFFF"/>
<ellipse opacity="0.6" cx="49.4" cy="39.2" rx="2.2" ry="2.2" fill="#FFFFFF"/>
</svg>
